<svg id="visual" viewBox="0 0 960 540" width="960" height="540" xmlns="http://www.w3.org/2000/svg" xmlns:xlink="http://www.w3.org/1999/xlink" version="1.1"><path d="M0 50L14.5 52.7C29 55.3 58 60.7 87.2 62.3C116.3 64 145.7 62 174.8 62.8C204 63.7 233 67.3 262 68.3C291 69.3 320 67.7 349 64.2C378 60.7 407 55.3 436.2 58C465.3 60.7 494.7 71.3 523.8 72.2C553 73 582 64 611 64C640 64 669 73 698 75.7C727 78.3 756 74.7 785.2 75.5C814.3 76.3 843.7 81.7 872.8 82.7C902 83.7 931 80.3 945.5 78.7L960 77L960 0L945.5 0C931 0 902 0 872.8 0C843.7 0 814.3 0 785.2 0C756 0 727 0 698 0C669 0 640 0 611 0C582 0 553 0 523.8 0C494.7 0 465.3 0 436.2 0C407 0 378 0 349 0C320 0 291 0 262 0C233 0 204 0 174.8 0C145.7 0 116.3 0 87.2 0C58 0 29 0 14.5 0L0 0Z" fill="#e7e5e4"></path><path d="M0 141L14.5 157.3C29 173.7 58 206.3 87.2 214.5C116.3 222.7 145.7 206.3 174.8 205.3C204 204.3 233 218.7 262 217.8C291 217 320 201 349 194.7C378 188.3 407 191.7 436.2 200.7C465.3 209.7 494.7 224.3 523.8 228C553 231.7 582 224.3 611 232.3C640 240.3 669 263.7 698 257.3C727 251 756 215 785.2 207.8C814.3 200.7 843.7 222.3 872.8 228.7C902 235 931 226 945.5 221.5L960 217L960 75L945.5 76.7C931 78.3 902 81.7 872.8 80.7C843.7 79.7 814.3 74.3 785.2 73.5C756 72.7 727 76.3 698 73.7C669 71 640 62 611 62C582 62 553 71 523.8 70.2C494.7 69.3 465.3 58.7 436.2 56C407 53.3 378 58.7 349 62.2C320 65.7 291 67.3 262 66.3C233 65.3 204 61.7 174.8 60.8C145.7 60 116.3 62 87.2 60.3C58 58.7 29 53.3 14.5 50.7L0 48Z" fill="#e3e0df"></path><path d="M0 336L14.5 345C29 354 58 372 87.2 381.8C116.3 391.7 145.7 393.3 174.8 392.3C204 391.3 233 387.7 262 389.5C291 391.3 320 398.7 349 397.8C378 397 407 388 436.2 379.8C465.3 371.7 494.7 364.3 523.8 356.2C553 348 582 339 611 343.5C640 348 669 366 698 373.3C727 380.7 756 377.3 785.2 374.7C814.3 372 843.7 370 872.8 362.7C902 355.3 931 342.7 945.5 336.3L960 330L960 215L945.5 219.5C931 224 902 233 872.8 226.7C843.7 220.3 814.3 198.7 785.2 205.8C756 213 727 249 698 255.3C669 261.7 640 238.3 611 230.3C582 222.3 553 229.7 523.8 226C494.7 222.3 465.3 207.7 436.2 198.7C407 189.7 378 186.3 349 192.7C320 199 291 215 262 215.8C233 216.7 204 202.3 174.8 203.3C145.7 204.3 116.3 220.7 87.2 212.5C58 204.3 29 171.7 14.5 155.3L0 139Z" fill="#dfdcda"></path><path d="M0 395L14.5 402.2C29 409.3 58 423.7 87.2 430.8C116.3 438 145.7 438 174.8 443.5C204 449 233 460 262 461.8C291 463.7 320 456.3 349 450.8C378 445.3 407 441.7 436.2 437.2C465.3 432.7 494.7 427.3 523.8 423.8C553 420.3 582 418.7 611 421.3C640 424 669 431 698 440.8C727 450.7 756 463.3 785.2 462.5C814.3 461.7 843.7 447.3 872.8 440.2C902 433 931 433 945.5 433L960 433L960 328L945.5 334.3C931 340.7 902 353.3 872.8 360.7C843.7 368 814.3 370 785.2 372.7C756 375.3 727 378.7 698 371.3C669 364 640 346 611 341.5C582 337 553 346 523.8 354.2C494.7 362.3 465.3 369.7 436.2 377.8C407 386 378 395 349 395.8C320 396.7 291 389.3 262 387.5C233 385.7 204 389.3 174.8 390.3C145.7 391.3 116.3 389.7 87.2 379.8C58 370 29 352 14.5 343L0 334Z" fill="#dad7d5"></path><path d="M0 541L14.5 541C29 541 58 541 87.2 541C116.3 541 145.7 541 174.8 541C204 541 233 541 262 541C291 541 320 541 349 541C378 541 407 541 436.2 541C465.3 541 494.7 541 523.8 541C553 541 582 541 611 541C640 541 669 541 698 541C727 541 756 541 785.2 541C814.3 541 843.7 541 872.8 541C902 541 931 541 945.5 541L960 541L960 431L945.5 431C931 431 902 431 872.8 438.2C843.7 445.3 814.3 459.7 785.2 460.5C756 461.3 727 448.7 698 438.8C669 429 640 422 611 419.3C582 416.7 553 418.3 523.8 421.8C494.7 425.3 465.3 430.7 436.2 435.2C407 439.7 378 443.3 349 448.8C320 454.3 291 461.7 262 459.8C233 458 204 447 174.8 441.5C145.7 436 116.3 436 87.2 428.8C58 421.7 29 407.3 14.5 400.2L0 393Z" fill="#d6d3d1"></path></svg>